:SAMPLES-PER-SECOND 30
:FRAME-RANGE 1-2091
:FULLY-SPECIFIED
:DEGREES
2026
root  54.2764 38.0738 75.1734 174.279 57.5801 174.432
RightUpLeg  -16.1617 1.65177 -12.1334
RightLeg  70.597 0.00934458 -0.801417
RightFoot  -0.266778 -0.789493 8.11136
RightToes  5.38607e-012 1.2921e-014 -6.02303e-014
Spine  -3.79228 -0.191401 -1.48219
Spine1  7.99048 0.170838 -4.88255
HEad  19.815 52.1852 -3.7747
LeftShoulder1  0.540512 1.10869 -18.257
LeftArm  -5.59724 -1.97125 -50.3645
LeftForeArm  14.0763 6.38552 -11.1759
LeftHand  -0.0515528 4.86134 7.03408
RightShoulder  1.62699 2.09313 24.0022
RightArm  -21.5967 7.66288 41.2468
RightForeArm  53.9469 1.86592 6.314
RightHand  0.0380585 -5.71851 -17.9577
LeftUpLeg  -15.7595 -6.39873 -11.0275
LeftLeg  21.8548 8.43672 4.30917
LeftFoot  -5.17376 -0.358057 7.21578
LeftToes  -7.20997e-011 3.75522e-011 -2.80735e-011
2027
root  55.4153 38.2155 74.1895 174.984 54.902 175.479
RightUpLeg  -19.216 0.970175 -10.9703
RightLeg  67.4928 -0.470809 -1.94645
RightFoot  -2.80653 -0.537697 6.94026
RightToes  5.38607e-012 1.2921e-014 -6.02303e-014
Spine  -3.58696 -0.623953 -1.96637
Spine1  7.43962 -0.483922 -4.04018
HEad  20.2052 52.5238 -3.68565
LeftShoulder1  0.682666 0.575378 -18.6905
LeftArm  -3.40091 -3.81533 -54.2712
LeftForeArm  19.8708 3.96568 -11.9615
LeftHand  -0.0538069 4.82997 7.16364
RightShoulder  1.50425 1.52294 25.0529
RightArm  -21.3307 4.29958 42.9891
RightForeArm  53.9431 3.1358 6.66932
RightHand  0.0323258 -5.68825 -17.6571
LeftUpLeg  -12.549 -6.00919 -11.6304
LeftLeg  21.428 5.96601 3.44503
LeftFoot  -7.33408 -0.234011 7.9401
LeftToes  -7.20997e-011 3.75522e-011 -2.80735e-011
2028
root  56.5389 38.2766 73.2247 175.899 52.1482 176.641
RightUpLeg  -21.9733 0.331292 -9.7498
RightLeg  62.3313 -1.73797 -4.13889
RightFoot  -4.83169 -0.40448 6.52578
RightToes  5.38607e-012 1.2921e-014 -6.02303e-014
Spine  -3.28424 -1.18639 -2.33136
Spine1  6.74159 -1.19196 -3.19751
HEad  19.0982 52.5558 -4.44247
LeftShoulder1  0.790156 0.196049 -19.13
LeftArm  0.212656 -5.5231 -57.5714
LeftForeArm  26.1002 0.649559 -13.0004
LeftHand  -0.0469976 4.95158 7.22179
RightShoulder  1.35001 0.890056 26.097
RightArm  -21.4241 1.23201 44.7739
RightForeArm  54.4676 3.65303 6.78924
RightHand  0.0218688 -5.62112 -17.5397
LeftUpLeg  -9.61849 -5.26599 -11.7279
LeftLeg  21.1353 3.14086 2.40511
LeftFoot  -9.67318 -0.0677031 8.6388
LeftToes  -7.20997e-011 3.75522e-011 -2.80735e-011
2029
root  57.6554 38.3275 72.2571 176.732 49.7082 177.626
RightUpLeg  -24.1507 -0.0522842 -8.50862
RightLeg  55.0525 -4.25971 -6.92702
RightFoot  -5.42698 -0.364276 6.32882
RightToes  5.38607e-012 1.2921e-014 -6.02303e-014
Spine  -3.30165 -1.69986 -2.66276
Spine1  6.4693 -1.75001 -2.4058
HEad  17.0102 52.3199 -5.58568
LeftShoulder1  0.884938 -0.210871 -18.8677
LeftArm  6.19319 -7.087 -61.2597
LeftForeArm  28.9401 -3.16688 -13.5439
LeftHand  -0.0571139 4.7612 7.01912
RightShoulder  1.20654 0.344362 26.9848
RightArm  -22.3927 -1.49279 46.7233
RightForeArm  55.6232 3.35371 6.44621
RightHand  -0.00675902 -5.43485 -16.9542
LeftUpLeg  -6.68675 -4.69165 -11.5813
LeftLeg  20.6153 0.652798 1.60351
LeftFoot  -11.6936 0.0996602 9.46687
LeftToes  -7.20997e-011 3.75522e-011 -2.80735e-011
2030
root  58.7435 38.3922 71.2808 177.453 47.7014 178.259
RightUpLeg  -25.4911 0.146505 -7.56083
RightLeg  45.4311 -7.21148 -8.07006
RightFoot  -4.9654 -0.398487 6.53913
RightToes  5.38607e-012 1.2921e-014 -6.02303e-014
Spine  -3.70334 -2.13596 -2.8969
Spine1  6.64353 -2.14156 -1.64758
HEad  14.5206 51.8587 -6.83507
LeftShoulder1  0.956864 -0.509297 -18.7795
LeftArm  16.4576 -8.15021 -64.173
LeftForeArm  25.9895 -8.86159 -12.7716
LeftHand  -0.0655434 4.30972 5.01258
RightShoulder  1.11281 -0.0230717 27.8386
RightArm  -23.6514 -3.73294 48.4742
RightForeArm  56.79 2.10943 5.86286
RightHand  0.00565793 -5.52102 -16.9534
LeftUpLeg  -3.53887 -4.48012 -11.5378
LeftLeg  19.1663 -1.13334 1.33429
LeftFoot  -13.0501 0.235282 10.469
LeftToes  -7.20997e-011 3.75522e-011 -2.80735e-011
2031
root  59.8403 38.4337 70.2876 178.512 45.952 179.267
RightUpLeg  -25.6091 1.09901 -6.34714
RightLeg  33.4513 -9.75838 -7.10617
RightFoot  -3.90707 -0.46711 6.77131
RightToes  5.38607e-012 1.2921e-014 -6.02303e-014
Spine  -4.46014 -2.61411 -2.65073
Spine1  7.21293 -2.57359 -1.08585
HEad  12.5053 51.5492 -7.48952
LeftShoulder1  1.00657 -0.725981 -18.6563
LeftArm  27.0248 -8.89114 -66.4983
LeftForeArm  20.2957 -14.1418 -10.4538
LeftHand  -0.0708751 4.03037 4.51537
RightShoulder  1.05612 -0.253277 28.5461
RightArm  -25.5009 -5.55106 49.9575
RightForeArm  58.9998 0.0270967 4.828
RightHand  -0.0152546 -5.37902 -16.4389
LeftUpLeg  -0.50989 -3.72068 -10.8084
LeftLeg  17.6983 -3.25933 0.891235
LeftFoot  -14.4321 0.393154 11.3068
LeftToes  -7.20997e-011 3.75522e-011 -2.80735e-011
2032
root  60.9813 38.3877 69.2454 179.436 45.0504 179.811
RightUpLeg  -25.0197 1.73985 -5.2729
RightLeg  19.8635 -9.17884 -3.85954
RightFoot  -3.79895 -0.510423 7.34004
RightToes  5.38607e-012 1.2921e-014 -6.02303e-014
Spine  -5.66918 -2.93533 -2.60311
Spine1  7.91362 -2.82451 -0.709989
HEad  11.0905 51.7413 -7.59583
LeftShoulder1  1.03284 -0.827508 -18.6811
LeftArm  33.9117 -9.17614 -67.8412
LeftForeArm  17.304 -18.161 -7.50986
LeftHand  -0.0730368 3.60541 3.6701
RightShoulder  1.0069 -0.429979 28.9598
RightArm  -27.2863 -6.92265 51.0292
RightForeArm  61.1635 -2.84778 3.61974
RightHand  -0.00869861 -5.43068 -15.9507
LeftUpLeg  2.40064 -2.50189 -10.1612
LeftLeg  16.0664 -5.16344 0.587877
LeftFoot  -15.851 0.559886 11.7468
LeftToes  -7.20997e-011 3.75522e-011 -2.80735e-011
2033
root  62.1879 38.2099 68.1548 -179.873 44.3342 -179.862
RightUpLeg  -24.2101 -1.13061 -2.99047
RightLeg  7.77946 -4.02706 -0.689485
RightFoot  -5.41127 -0.510249 9.11959
RightToes  5.38607e-012 1.2921e-014 -6.02303e-014
Spine  -6.75016 -3.32142 -2.77575
Spine1  8.39628 -3.14285 -0.497172
HEad  10.5911 52.1214 -6.98951
LeftShoulder1  1.03393 -0.811359 -18.8152
LeftArm  36.7172 -9.41483 -68.3029
LeftForeArm  17.3929 -20.8101 -5.32367
LeftHand  -0.0662084 3.63063 3.24104
RightShoulder  0.921442 -0.690764 29.1647
RightArm  -28.7794 -8.40106 51.5433
RightForeArm  63.6599 -5.37701 2.52876
RightHand  0.0401749 -5.81487 -15.3065
LeftUpLeg  5.17348 -1.08341 -9.37578
LeftLeg  15.1044 -7.04421 0.0855219
LeftFoot  -17.5366 0.77859 12.3798
LeftToes  -7.20997e-011 3.75522e-011 -2.80735e-011
2034
root  63.4165 37.9405 67.0455 -179.596 43.6212 -179.628
RightUpLeg  -23.4843 -0.495826 -2.29706
RightLeg  -0.169131 -1.23131 1.10846
RightFoot  -7.52917 -0.470205 12.537
RightToes  5.38607e-012 1.2921e-014 -6.02303e-014
Spine  -7.21354 -3.64375 -3.06026
Spine1  8.59746 -3.47203 -0.186709
HEad  10.0449 52.3489 -6.49906
LeftShoulder1  0.988769 -0.621657 -18.8823
LeftArm  37.0695 -9.98158 -68.3516
LeftForeArm  17.1509 -22.0128 -4.56625
LeftHand  -0.0681034 3.81942 3.7311
RightShoulder  0.844781 -0.924886 29.3906
RightArm  -29.6695 -10.2883 51.1434
RightForeArm  65.6156 -5.2454 2.16763
RightHand  0.0906616 -6.24836 -14.6492
LeftUpLeg  7.78113 -0.595131 -8.74328
LeftLeg  15.4042 -8.09929 -0.34217
LeftFoot  -19.3497 0.982176 12.3117
LeftToes  -7.20997e-011 3.75522e-011 -2.80735e-011
2035
root  64.6256 37.6421 65.9028 -179.658 42.6166 -179.897
RightUpLeg  -23.9831 0.51789 -1.47296
RightLeg  -0.69607 -0.660881 0.852557
RightFoot  -10.1109 -0.205725 12.6866
RightToes  5.38607e-012 1.2921e-014 -6.02303e-014
Spine  -7.20842 -3.88921 -3.49149
Spine1  8.44077 -3.72803 0.0124079
HEad  9.03546 52.3489 -6.5576
LeftShoulder1  0.927252 -0.381577 -18.8497
LeftArm  35.7231 -10.8145 -68.4906
LeftForeArm  16.3604 -21.3901 -4.94045
LeftHand  -0.073679 3.81422 4.15813
RightShoulder  0.775426 -1.12266 29.4019
RightArm  -30.0349 -12.1516 50.0752
RightForeArm  66.4063 -5.19352 2.03311
RightHand  0.134956 -6.60495 -14.6631
LeftUpLeg  9.69806 -1.70093 -8.99942
LeftLeg  17.0919 -7.79295 -0.574394
LeftFoot  -20.5169 1.03864 11.361
LeftToes  -7.20997e-011 3.75522e-011 -2.80735e-011
2036
root  65.7944 37.4065 64.6724 -179.529 41.644 -179.918
RightUpLeg  -24.8695 -0.162685 -0.384162
RightLeg  4.27729 0.45363 1.24925
RightFoot  -9.15364 -0.261975 10.4256
RightToes  5.38607e-012 1.2921e-014 -6.02303e-014
Spine  -7.37537 -3.84778 -2.76891
Spine1  8.73999 -3.71783 -0.274886
HEad  7.77336 52.1552 -7.66659
LeftShoulder1  0.931321 -0.370319 -19.052
LeftArm  32.1391 -11.6336 -68.3072
LeftForeArm  16.8777 -19.3857 -6.34576
LeftHand  -0.079561 3.71398 4.36222
RightShoulder  0.737111 -1.20501 28.9409
RightArm  -30.92 -13.9092 48.8273
RightForeArm  67.2241 -5.07963 1.53955
RightHand  0.181791 -6.90899 -15.2935
LeftUpLeg  11.3519 -3.85342 -9.39691
LeftLeg  19.2754 -6.44339 -1.06694
LeftFoot  -20.5484 0.92053 9.86763
LeftToes  -7.20997e-011 3.75522e-011 -2.80735e-011
